<svg xmlns="http://www.w3.org/2000/svg"
    xmlns:xlink="http://www.w3.org/1999/xlink" version="1.1" x="0px" y="0px" viewBox="0 0 100 100" style="enable-background:new 0 0 100 100;" xml:space="preserve">
    <path d="M66.5,25.1l-3.4,3.4c-2.5-1.6-5.2-2.7-8-3.3v-5.5c0-0.4-0.2-0.8-0.4-1.1s-0.7-0.4-1.1-0.4l-7.5,0c-0.8,0-1.5,0.7-1.5,1.5  v5.7c-2.5,0.6-5,1.6-7.2,3l-3.6-3.6c-0.6-0.6-1.5-0.6-2.1,0l-5.3,5.3c-0.6,0.6-0.6,1.5,0,2.1l3.5,3.5c-1.5,2.3-2.5,4.8-3.2,7.4  l-6.1,0c-0.8,0-1.5,0.7-1.5,1.5l0,7.5c0,0.4,0.2,0.8,0.4,1.1s0.7,0.4,1.1,0.4l5.9,0c0.6,2.8,1.7,5.6,3.3,8.1l-3.4,3.4  c-0.6,0.6-0.6,1.5,0,2.1l5.3,5.3c0.6,0.6,1.5,0.6,2.1,0l3.4-3.4c2.3,1.4,4.7,2.5,7.3,3.1v5.4c0,0.4,0.2,0.8,0.4,1.1  c0.3,0.3,0.7,0.4,1.1,0.4l7.5,0c0.4,0,0.8-0.2,1.1-0.4s0.4-0.6,0.4-1.1l0-5.2c2.9-0.6,5.7-1.7,8.2-3.4l3.1,3.1  c0.6,0.6,1.5,0.6,2.1,0l5.3-5.3c0.6-0.6,0.6-1.5,0-2.1l-3.1-3.1c1.5-2.5,2.6-5.2,3.2-7.9h4.4c0.4,0,0.8-0.2,1.1-0.4s0.4-0.6,0.4-1.1  l0-7.5c0-0.4-0.2-0.8-0.4-1.1c-0.3-0.3-0.7-0.4-1.1-0.4h-4.6c-0.6-2.6-1.6-5-3.1-7.3l3.4-3.4c0.6-0.6,0.6-1.5,0-2.1l-5.3-5.3  C68,24.5,67.1,24.5,66.5,25.1z M60.6,59.3c-5.8,5.8-15.2,5.8-20.9,0s-5.8-15.2,0-20.9s15.2-5.8,20.9,0S66.4,53.5,60.6,59.3z"></path>
    <path d="M54.3,1.7c-7.8-1-15.4,0.7-21.9,4.8L29,2.8l-2.4,13.3l13.7-1l-3.2-3.6c5-2.8,10.7-3.9,16.5-3.2  c6.7,0.9,12.6,4.1,17,9.2l5.3-4.1C70.3,6.9,62.7,2.8,54.3,1.7z"></path>
    <path d="M1.8,42.2c-1,7.8,0.7,15.4,4.8,21.9l-3.7,3.4L16.2,70l-1-13.7l-3.6,3.2c-2.8-5-3.9-10.7-3.2-16.5  c0.9-6.7,4.1-12.6,9.2-17l-4.1-5.3C7,26.2,2.9,33.8,1.8,42.2z"></path>
    <path d="M72.9,83l-13.7,1l3.2,3.6c-5,2.8-10.7,3.9-16.5,3.2c-6.7-0.9-12.6-4.1-17-9.2l-5.3,4.1  c5.4,6.5,13,10.7,21.4,11.8c7.8,1,15.4-0.7,21.9-4.8l3.4,3.7L72.9,83z"></path>
    <path d="M83.7,26.8l1,13.7l3.6-3.2c2.8,5,3.9,10.7,3.2,16.5c-0.9,6.7-4.1,12.6-9.2,17l4.1,5.3  c6.5-5.4,10.7-13,11.8-21.4c1-7.8-0.7-15.4-4.8-21.9l3.7-3.4L83.7,26.8z"></path>
</svg>