<svg xmlns="http://www.w3.org/2000/svg" version="1.1" x="0px" y="0px" viewBox="0 0 100 100">
    <g transform="translate(0,-952.36218)">
        <g transform="matrix(0.68371532,0,0,0.68371532,41.078502,978.8154)">
            <g transform="matrix(0.43600876,0,0,0.43600876,-41.221721,-18.19303)" style="" fill="#000000">
                <path style="" d="M 49.71875 16.71875 C 28.46717 16.901448 11.348552 34.310918 11.53125 55.5625 C 11.623961 66.346724 16.153479 76.058682 23.375 83 L 26.875 79.4375 C 20.580309 73.407215 16.643497 64.952922 16.5625 55.53125 C 16.40323 37.004771 31.223524 21.90927 49.75 21.75 C 68.265919 21.59082 83.371978 36.411021 83.53125 54.9375 C 83.614606 64.633796 79.579747 73.390382 73.0625 79.5625 L 76.65625 83.0625 C 84.073965 75.963645 88.657482 65.954536 88.5625 54.90625 C 88.379803 33.654669 70.959771 16.536143 49.71875 16.71875 z M 29.4375 33.1875 L 46.8125 55.46875 C 47.169945 57.351769 48.796939 58.767059 50.78125 58.75 C 53.012735 58.730816 54.800434 56.918985 54.78125 54.6875 C 54.765466 52.851434 53.525019 51.32101 51.84375 50.84375 L 29.4375 33.1875 z " transform="matrix(3.354513,0,0,3.354513,-43.255035,-47.011375)" fill="#000000" fill-opacity="1" fill-rule="nonzero" stroke="none"></path>
            </g>
        </g>
    </g>
</svg>